# xmcd
#
# Track frame offsets: 
#        150
#        23287
#        34852
#        52293
#        68968
#        89668
#        106368
#        118702
#        133630
#        153151
#        168408
#
# Disc length: 2430 seconds
#
# Revision: 0
# Processed by: cddbd v1.5.2PL0 Copyright (c) Steve Scherf et al.
# Submitted via: ExactAudioCopy v0.95b3
#
DISCID=91097c0b
DTITLE=Gary Gordon - Real Blues
DYEAR=2005
DGENRE=Blues
TTITLE0=Wang Dang Doodle
TTITLE1=Anytime You Want Me
TTITLE2=The Same Thing
TTITLE3=County Jail Blues
TTITLE4=Broken Wing
TTITLE5=All Night Long
TTITLE6=Gypsy Woman
TTITLE7=Walkin' Cane
TTITLE8=Hootchie Cootchie Man
TTITLE9=Help Me
TTITLE10=Walk On
EXTD=
EXTT0=
EXTT1=
EXTT2=
EXTT3=
EXTT4=
EXTT5=
EXTT6=
EXTT7=
EXTT8=
EXTT9=
EXTT10=
PLAYORDER=
